<?xml version="1.0" encoding="utf-8"?>
<svg xmlns="http://www.w3.org/2000/svg">
<symbol id="cube_lb" viewBox="0 0 350 180">
<title>cube bg left bottom</title>
<path d="M0,6.469c4.691,1.081,7.227,4.323,12.215,5.104c7.68-3.188,13.497-8.242,21.377-11.229
	c5.465,5.409,14.061,7.677,20.358,12.25c0.456,8.39-1.046,18.743,1.018,25.519c-14.493,7.583-29.082,15.071-41.735,24.499
	c11.676,10.635,25.243,11.245,37.664,1.021c-3.464-6.733-12.107-8.275-17.305-13.271c8.503,0.741,11.616,10.566,20.358,10.208
	c3.143-0.128,7.621-4.115,11.198-6.125c3.19-1.792,10.461-3.841,8.144-6.125c8.225,2.299,14.02,12.352,22.395,12.249
	c7.693-0.094,11.748-8.567,19.341-11.229c-7.754-3.112-14.132-7.605-20.359-12.249c0-8.506,0-17.013,0-25.52
	c8.172-3.033,14.772-7.644,22.395-11.229c7.069,4.48,14.635,8.462,21.376,13.271c-2.723,6.807-0.1,21.544,0,25.52
	c-8.791,1.733-13.95,7.106-20.359,11.228c12.82,5.178,21.469,14.54,34.61,19.395c5.949-3.418,10.4-0.534,11.197,3.063
	c1.223,5.515-3.627,4.299-5.09,10.207c-1.51,6.105,1.162,9.692,0,15.312c6.976,3.894,13.695,8.044,21.377,11.229
	c7.075-4.133,14.13-8.287,21.376-12.25c-3.18,3.095,3.33,0.989,3.054,4.083c-10.612-2.167-18.335,6.566-25.447,11.229
	c1.704,5.938,1.092,14.338,0,20.415c13.109,9.991,28.641,17.554,42.753,26.54c5.373-5.16,14.142-6.916,18.323-13.271
	c-13.338-12.732-26.788-7.082-38.683-1.021c6.035-3.814,13.871-5.826,18.323-11.228c2.364-5.796,0.348-15.983,1.018-23.478
	c-5.291-1.854-13.386-6.29-14.251-9.188c5.393,2.418,9.05,6.577,15.27,8.167c6.6-2.23,11.046-6.618,9.163-17.354
	c3.271-1.824,7.12-3.068,9.16-6.125c-2.458-2.64-7.331-2.856-9.16-6.125c0-4.083,0-8.166,0-12.25
	c3.927-1.165,5.792-4.399,10.179-5.104c-0.645-3.437,1.312-9.481-1.019-11.229c-5.468,4.385-12.313,7.389-18.323,11.229
	c0,7.485,0,14.971,0,22.457c1.189,3.266,9.823,4.395,8.145,7.146c-2.458-2.64-7.331-2.855-9.163-6.125c0-8.167,0-16.333,0-24.499
	c7.326-3.204,12.604-8.458,20.36-11.229c0-8.506,0-17.012,0-25.519c14.883-7.533,28.207-16.628,42.753-24.5
	c7.291,3.577,14.349,7.389,20.359,12.25c8.176-3.371,14.394-8.704,22.396-12.25c7.101,4.789,15.195,8.58,22.394,13.271
	c-3.882,4.354-2.034,18.473-1.019,24.499c-7.857,3.348-13.643,8.776-21.375,12.249c-3.172,14.407,4.878,17.566,5.088,28.582
	c-4.14,2.205-7.866,2.093-11.196-1.021c-7.54,6.39-18.757,9.093-25.448,16.333c0,3.402,0,6.805,0,10.208
	c18.025,10.166,35.988,20.394,53.95,30.623c-2.203,3.681-1.32,18.892,0,25.519c-8.473,5.455-22.915,4.923-22.394,19.395
	c-0.34,0-0.68,0-1.019,0c-0.606-2.114,1.257-6.706-1.018-7.146c-1.889,3.892-8.292,3.254-10.181,7.146c-0.678,0-1.356,0-2.034,0
	c3.235-3.221,7.287-5.622,12.215-7.146c1.354-3.064,1.034-7.809,1.018-12.249c-3.509-1.926-5.76-5.112-11.198-5.104
	c1.127-4.313,1.173-9.711,1.018-15.312c3.886-1.209,6.453-3.736,10.181-5.103c0-3.403,0-6.806,0-10.208
	c-4.973,1.15-14.065,6.98-19.341,11.229c0.62,8.447-0.79,14.86-1.019,22.457c5.576,4.615,12.625,7.756,19.342,11.228
	c-5.997,0.555-13.239-6.448-19.342-9.187c-7.393,2.455-11.367,8.335-19.341,10.207c1.829,5.312,9.256,5.009,12.215,9.188
	c-0.679,0-1.356,0-2.034,0c-3.719-3.079-8.948-4.639-13.235-7.146c-3.149,2.966-7.906,4.321-11.196,7.146c-0.679,0-1.358,0-2.036,0
	c2.754-3.705,8.341-4.566,12.215-7.146c-4.178-5.679-11.704-7.997-18.321-11.229c0,6.125,0,12.25,0,18.374c-0.341,0-0.681,0-1.019,0
	c4.579-20.926-7.989-24.655-18.323-30.623c5.669-0.564,11.426,7.585,18.323,9.188c-0.085-6.726-0.267-23.845,1.019-22.457
	c0,7.146,0,14.29,0,21.436c5.118-0.666,14.189-6.174,18.321-11.229c2.982,0.903,13.889,7.188,21.377,12.25
	c6.761-15.391-1.077-28.983-13.232-31.645c-4.462,2.611-7.15,3.639-11.197,0c-4.502,2.631-8.898,5.37-14.253,7.146
	c4.659-4.899,9.401-4.908,14.253-8.166c0.815-3.541-1.517-3.924-1.018-7.146c5.621-2.359,13.073-2.932,12.215,6.125
	c2.396,4.402,8.991,4.593,12.215,8.166c11.209,0.69,13.854-7.205,22.396-9.188c-8.004-7.968-20.484-11.443-29.521-18.374
	c-5.299,1.152-7.435,5.476-12.217,7.146c2.324-3.454,5.625-5.928,10.181-7.146c-1.612-3.146-6.287-3.224-8.145-6.124
	c-3.694,1.06-6.124,3.386-9.16,5.104c1.831,2.586,4.995,3.836,8.143,5.104c-3.041,2.315-6.824-3.324-10.179-4.084
	c-3.727,1.367-6.296,3.896-10.179,5.104c-1.257,7.247,2.574,19.597-2.036,23.478c2.213-5.266,0.457-14.513,1.018-21.436
	c-2.146-3.635-6.47-5.083-10.181-7.146c-4.046,1.726-6.734,4.815-11.196,6.125c-2.484-2.954-6.256-4.615-10.179-6.125
	c-3.021,2.077-6.469,3.722-9.163,6.125c0.578,7.586-1.219,17.556,1.018,23.479c5.574,3.599,11.611,6.73,17.306,10.206
	c2.362-5.117,0.35-14.62,1.019-21.436c-5.306-4.547-12.007-7.695-18.324-11.228c5.745-0.642,12.322,6.687,18.324,9.186
	c8.145-2.039,12.827-7.551,20.359-10.207c-5.308,4.548-12.007,7.696-18.323,11.229c0,7.486,0,14.972,0,22.456
	c6.585-2.583,12-6.339,17.305-10.206c-1.748,8.122-21.799,6.715-18.323,23.478c2.09,3.348,6.972,3.896,10.179,6.124
	c4.283-0.13,4.88-3.954,9.163-4.083c-1.44,2.979-5.594,3.238-8.145,5.104c0.15,6.809-2.796,12.139,3.054,14.291
	c-1.696,0-3.393,0-5.09,0c0.187-0.868-0.396-0.963-1.019-1.021c0.694-4.069,2.575-6.946,2.036-12.249
	c-3.305-0.194-5.621,5.853-4.07,7.146c-2.798,2.404-1.441-8.039-6.108-7.146c3.211,3.737,0.716,8.615,8.143,9.187
	c-1.518,2.561-8.805-0.663-8.143,4.083c-0.34,0-0.678,0-1.018,0c0.701-2.745-2.104-1.973-3.055-3.063
	c0.414-3.447,3.947,2.717,3.055-2.041c-2.987-1.593-8.157,3.357-11.197,5.104c-0.68,0-1.358,0-2.036,0
	c0.443-1.256,1.303-2.097,3.055-2.042c0-4.423,0-8.846,0-13.27c4.175-0.916,7.064-3.122,10.179-5.104c0-3.402,0-6.806,0-10.208
	c-7.28,2.567-11.589,8.114-19.342,10.208c0.708,7.855-1.019,13.27-1.019,20.415c-0.338,0-0.678,0-1.018,0
	c0-7.146,1.726-12.56,1.018-20.415c-7.983-2.542-13.652-7.405-20.357-11.229c-5.604,1.564-13.25,8.893-21.377,11.229
	c1.14,7.678,0.628,12.536,0,20.415c-0.34,0-0.679,0-1.019,0c0-6.124,0-12.249,0-18.374c-6.334,0.794-8.159,6.109-14.251,7.146
	c-0.59,3.313,0.694,4.748,1.018,7.145c-5.093,2.91-14.913,3.161-13.233-6.125c-2.867-4.27-8.673-5.593-13.233-8.166
	c4.79-1.715,9.69,5.236,15.269,6.125c1.506-0.531,2.566-1.51,4.072-2.042c0.219-15.249,0.021-24.978,0-40.83
	c-7.74,1.424-11.184,7.158-18.323,9.187c3.606,6.591,13.493,6.885,17.305,13.27c-7.703-6.991-32.107-19.632-28.502,6.125
	c-3.777,1.997-7.13,4.418-11.197,6.125c-4.958-0.474-6.399-4.472-11.198-5.104c0-4.083,0-8.166,0-12.249
	c-2.103-2.314-5.207-3.626-8.144-5.104c-0.494,7.008-2.998,14.882-1.018,20.416c1.899,5.31,15.226,12.141,19.341,12.249
	c8.366,0.222,13.801-8.856,21.376-10.207c-2.083-3.354-0.55-10.338-1.018-15.312c2.345,2.752,0.361,9.845,1.018,14.291
	c7.761-2.086,11.708-7.996,19.341-10.208c-11.781,8.602-24.766,15.996-38.682,22.456c2.611,4.528,9.781,4.483,12.215,9.188
	c-0.339,0-0.679,0-1.018,0c-8.347-7.404-16.741-8.928-24.43,0c-1.018,0-2.036,0-3.054,0c3.65-3.825,10.368-4.574,13.233-9.188
	c-6.885-2.623-12.344-6.676-18.323-10.207c0,6.465,0,12.93,0,19.395c-0.679,0-1.358,0-2.036,0c0.94-6.543-2.134-17.111,2.036-20.415
	c-1.601-3.732-1.521,2.371-4.072,1.021c3.497-5,1.549-15.46,2.036-23.479c-5.34,0.444-12.884,7.485-19.341,10.208
	c5.593,3.578,11.776,6.565,17.305,10.208c-4.903-0.203-12.644-6.363-18.323-9.187c-11.065,6.257-25.125,9.512-20.359,31.644
	c-0.339,0-0.678,0-1.018,0c0-6.124,0-12.249,0-18.374c-6.104,3.405-14.694,4.319-15.269,13.271c3.453,1.301,6.462,3.047,9.161,5.104
	c-0.678,0-1.357,0-2.036,0c-3.261-3.412-9.985-5.839-12.215,0c-0.339,0-0.678,0-1.018,0c-2.323-4.137,1.011-3.479,4.072-4.083
	c-3.46-6.718-10.675,2.505-15.269,4.083c-0.678,0-1.357,0-2.036,0c1.828-4.292,10.086-2.136,8.144-10.208
	c-3.603-3.873-9.448-5.496-14.251-8.166c0,6.125,0,12.25,0,18.374c-0.339,0-0.679,0-1.018,0c1.072-6.097-1.932-18.125,1.018-19.395
	C7.398,159.312,4.988,155.604,0,154.48c0-0.68,0-1.36,0-2.041c3.008,2.428,7.171,3.697,10.179,6.125
	c1.586-16.197,0.695-28.578,1.018-45.935c-4.566-0.363-7,5.252-10.179,3.062c0.339,2.251,3.071,11.635-1.018,14.291
	c0-5.104,0-10.207,0-15.312c4.74-0.011,7.242-2.265,10.179-4.083c-3.838-1.595-6.893-3.977-10.179-6.124c0-0.342,0-0.682,0-1.021
	c3.777,1.997,7.13,4.419,11.197,6.125c0-7.146,0-14.291,0-21.437C8.652,84.558,3.787,83.313,0,80.986c0-0.341,0-0.681,0-1.021
	c4.576,0.855,6.736,4.133,11.197,5.104c0-7.485,0-14.972,0-22.457C7.422,60.613,3.27,58.993,0,56.487c0-0.341,0-0.681,0-1.021
	c4.406,1.706,7.642,4.586,12.215,6.125c5.874-4.318,12.558-7.822,18.323-12.25c-6.813-3.375-12.639-7.74-19.341-11.228
	C7.201,40.229,3.942,43.087,0,45.258c0-0.681,0-1.361,0-2.042c12.666-1.248,11.978-15.889,11.197-30.623
	C6.484,11.139,5.012,10.028,0,7.49C0,7.149,0,6.809,0,6.469z M178.141,134.065c2.104,7.953,1.961,15.61,1.019,24.499
	c7.4-2.446,11.697-8.004,19.341-10.208C193.961,141.339,183.149,140.611,178.141,134.065z M158.799,166.73
	c7.05,4.211,11.825-4.78,18.324-7.146c-6.362-3.488-12.224-7.478-18.324-11.229C158.799,154.48,158.799,160.605,158.799,166.73z
	 M176.104,137.127c-4.388,4.788-12.898,5.44-16.287,11.229c7.144,2.363,11.482,7.54,18.323,10.208
	C176.902,151.98,180.694,140.353,176.104,137.127z M158.799,124.879c0.668,6.814-1.343,16.318,1.018,21.436
	c4.082-5.774,14.053-5.642,17.306-12.249C170.388,131.631,165.542,127.304,158.799,124.879z M178.141,133.045
	c0-6.806,0-13.611,0-20.415c-7.06,2.106-11.149,7.193-18.323,9.186C163.873,127.617,171.579,129.757,178.141,133.045z
	 M158.799,100.38c-1.091,7.071,2.345,18.684-2.036,22.457c1.578-5.579,1.779-17.93,0-23.478
	c-8.339,6.949-19.254,11.315-28.502,17.353c0,4.424,0,8.848,0,13.271c19.196,7.021,34.787-12.472,48.862-20.415
	C170.691,106.829,165.396,102.952,158.799,100.38z M153.709,71.799c4.945,0.431,7.354,1.829,5.09,7.145
	c3.7-0.033,4.472-3.002,4.072-7.145C159.435,69.399,156.797,68.015,153.709,71.799z M153.709,72.82
	c-0.342,3.746,1.563,5.237,4.072,6.124C157.601,75.722,157.066,72.855,153.709,72.82z M116.046,50.362
	C104.107,57.785,91.848,64.887,79.4,71.799c0.817,5.607-8.271,15.501-3.054,25.519c5.515-3.996,11.196-7.828,18.323-10.207
	c1.126-7.718-2.394-20.094,2.036-24.499c3.771,2.364,12.398,5.232,12.215,8.166c-4.576-2.216-7.963-5.626-13.233-7.146
	c0,7.146,0,14.291,0,21.436c5.532-1.598,8.948-5.318,14.251-7.146c-1.045-7.172,2.245-9.999,7.126-11.229
	c3.182,2.594,5.893,5.66,6.107,11.229c4.946,2.867,10.928,4.694,14.251,9.188c-0.667,6.477,1.342,15.637-1.018,20.415
	c0-7.146,0-14.291,0-21.436c-6.87-1.357-10.957-9.527-19.341-6.125c0,10.207,0,20.415,0,30.623
	c4.195,1.237,6.237,4.634,11.197,5.104c9.626-5.999,19.455-11.794,29.52-17.354c0-6.124,0-12.249,0-18.373
	c-2.316-0.74-5.2-0.91-7.125-2.042c2.546-2.451,0.966-2.703,1.018-7.145C138.552,65.222,128.861,56.225,116.046,50.362z
	 M116.046,2.386c-7.113,3.075-12.913,7.467-20.359,10.208c0,7.826,0,15.651,0,23.478c5.945,5.607,14.074,9.024,21.377,13.27
	c5.901-4.63,12.862-8.198,19.341-12.249c0-8.167,0-16.333,0-24.499C128.115,10.698,124.335,4.281,116.046,2.386z M53.951,87.11
	c8.345,1.839,12.233,8.148,20.359,10.207c0-5.443,0-10.888,0-16.332c-2.968-2.615-6.02,0.166-7.125-3.063
	c0.867-16.257,17.668-4.492,25.449-14.291C80.829,42.586,45.136,53.26,53.951,87.11z M51.915,87.11
	c-5.418,5.795-15.068,7.347-19.341,14.29c2.36,4.779,0.351,13.939,1.018,20.415c12.656,9.767,27.838,17,41.736,25.52
	c4.042-5.474,11.375-7.646,17.305-11.228c-3.208-7.331-14.04-7.019-18.323-13.271c0-7.825,0-15.651,0-23.478
	C66.402,95.72,60.197,90.374,51.915,87.11z M50.897,63.632c-5.043,5.491-14.517,6.537-18.323,13.27
	c3.029,4.447-0.994,15.968,2.036,20.415c5.528-4.324,11.949-7.752,18.323-11.228C51.685,79.174,55.499,67.184,50.897,63.632z
	 M33.592,124.879c1.372,12.011-5.977,35.893,0,41.852c3.56,3.549,14.077-3.688,19.341-8.166c-2.24-6.011,1.333-14.979,0-23.478
	C45.557,132.615,40.694,127.624,33.592,124.879z M29.521,124.879c-4.729,4.784-12.39,6.63-17.305,11.229
	c0.51,7.997-0.544,14.425-1.018,21.436c4.524,4.111,11.538,10.695,18.323,9.188C32.732,157.295,33.025,134.266,29.521,124.879z
	 M12.215,88.131c0.57,7.254-1.208,16.864,1.018,22.457c4.229,4.277,15.273,7.125,16.287,11.228
	c-5.965-2.864-10.559-7.105-17.305-9.186c0.669,7.154-1.345,16.999,1.018,22.457c3.896-6.643,13.949-7.108,18.323-13.271
	c0-7.485,0-14.97,0-22.456C25.524,95.2,19.4,91.133,12.215,88.131z M12.215,63.632c0,7.146,0,14.291,0,21.436
	c5.302,5.231,12.912,8.149,19.341,12.249c0-7.485,0-14.971,0-22.457C25.509,70.717,18.895,67.142,12.215,63.632z M32.574,2.386
	c-7.92-0.138-11.314,9.16-20.359,10.208c0,7.826,0,15.651,0,23.478c5.42,5.793,13.578,8.841,20.359,13.27
	c6.275-5.275,15.671-7.422,20.359-14.291c0-7.485,0-14.971,0-22.457C44.115,11.79,39.974,2.515,32.574,2.386z M111.974,71.799
	c3.179,1.235,6.353,2.476,9.162,4.083c0-1.701,0-3.403,0-5.104C118.825,70.101,112.6,68.139,111.974,71.799z M117.064,111.608
	c0,1.701,0,3.403,0,5.104c3.796,2.074,4.144,1.902,8.143,1.021C124.389,113.79,119.091,114.339,117.064,111.608z M116.046,131.003
	c-0.325-2.396-3.151-2.284-4.072-4.083c-4.637,3.177-11.911,3.708-14.251,9.188c4.283,0.129,4.879,3.953,9.162,4.082
	c2.571-1.504,4.547-3.605,8.144-4.082c-0.601-3.821-5.672-3.159-7.125-6.125c5.425,3.34,12.08,3.769,17.305,0
	c-0.146,3.976-10.691,2.837-8.143,6.125c4.207,0.172,12.515,5.914,18.323,0c-3.479-4.757-10.804-9.682-18.323-7.146
	c-0.312-2.354,2.941-1.134,3.054-3.062c-2.556-2.008-5.607-2.383-7.125,1.021C115.235,126.489,118.606,129.977,116.046,131.003z
	 M107.902,115.691c-1.258,3.303,3.294,0.78,2.036,4.084c-1.301-0.058-1.41-1.31-3.054-1.021c0.63,2.771-1.292,8.101,1.018,9.188
	c0.266-1.436,2.232-1.165,3.054-2.042c-1.741-5.421,1.836-4.519,0-8.166c1.8,1.895,2.972-0.444,5.09-1.021
	c-0.557-1.483,1.189-5.275-1.018-5.104C113.757,114.077,110.855,114.911,107.902,115.691z M95.687,87.11
	c0.578,7.586-1.22,17.556,1.018,23.478c5.209,6.613,13.61,4.888,19.341,0c0-9.868,0-19.735,0-29.602
	C108.938,74.879,102.886,84.527,95.687,87.11z M126.225,127.941c-0.915-2.825,2.091-9.583-2.036-9.188
	C121.155,121.923,122.25,126.647,126.225,127.941z M69.221,71.799c-0.005,4.086,0.534,7.63,5.089,7.145
	c-1.427-5.514,2.749-5.41,3.054-9.187C73.963,67.986,72.386,70.686,69.221,71.799z M76.346,78.944
	c0.225-0.795,0.853-1.187,2.036-1.021c-0.557-1.483,1.189-5.276-1.018-5.103c-0.226,0.794-0.853,1.186-2.036,1.02
	C75.885,75.323,74.138,79.115,76.346,78.944z M93.651,111.608c2.017-6.144,0.596-15.733,1.018-23.478
	c-7.283,2.564-12.49,7.209-19.341,10.207c0,8.166,0,16.333,0,24.499c6.232,3.958,13.3,7.078,19.341,11.229
	c4.607-0.144,5.328-4.186,10.18-4.083c0-4.423,0-8.847,0-13.271C101.468,114.658,97.39,113.304,93.651,111.608z M53.951,138.148
	c0.668,6.476-1.341,15.636,1.018,20.416c4.595-4.92,12.802-6.219,17.306-11.229C66.012,145.654,58.032,135.26,53.951,138.148z
	 M158.799,167.751c0,0.681,0,1.361,0,2.041c0.058,0.623,0.152,1.209,1.018,1.021c0.012-1.028,1.784-1.283,2.036,0
	c-1.142,0.217-1.584,1.134-2.036,2.042c1.401-0.044,2.235,0.48,3.054,1.021C163.278,170.065,162.058,167.886,158.799,167.751z
	 M153.709,170.813c-1.318,5.261,4.175,7.319,7.126,5.104C160,172.672,156.466,172.132,153.709,170.813z M106.884,153.46
	c3.727,1.366,6.296,3.895,10.18,5.104c3.274-1.48,5.705-3.807,9.161-5.104c-0.645-3.437,1.312-9.481-1.018-11.229
	c-3.037,6.616-16.085,5.002-16.287,0c3.165,0.908,4.742,3.411,8.144,4.083c2.571-1.505,4.547-3.606,8.143-4.083
	C119.797,131.695,103.501,136.489,106.884,153.46z M326.762,123.857c0,3.743,0,7.486,0,11.229c4.488,1.623,8.626,3.598,11.196,7.145
	c0,3.743,0,7.485,0,11.229c-4.764,1.348-6.844,5.387-11.196,7.146c0.639,3.104-1.305,8.793,1.018,10.207
	c4.968-4.886,12.556-7.143,18.322-11.228c-0.585-7.92,1.23-18.246-1.017-24.498C339.263,131.057,333.313,127.153,326.762,123.857z
	 M326.762,136.107c0,7.485,0,14.971,0,22.457c4.667-0.085,4.646-4.867,9.16-5.104c0-4.083,0-8.167,0-12.249
	C332.647,139.731,330.218,137.404,326.762,136.107z M316.581,141.211c-1.654,10.506,1.994,15.693,9.162,17.354
	c-0.67-7.155,1.345-17.001-1.018-22.457C323.286,139.087,319.132,139.347,316.581,141.211z M294.188,103.442
	c0-3.063,0-6.125,0-9.187c-3.52,0.895-6.684,2.146-8.145,5.104C289.208,100.269,290.785,102.77,294.188,103.442z M275.864,93.234
	c5.539,4.836,12.574,4.421,17.305-1.021c-2.937-1.479-6.041-2.789-8.145-5.104C281.474,88.652,277.726,89.999,275.864,93.234z
	 M284.007,2.386c-14.313,7.083-27.646,15.15-40.717,23.479c0,8.165,0,16.332,0,24.498c7.366,3.5,14.561,7.174,20.359,12.25
	c0,7.825,0,15.651,0,23.478c7.506,6.821,13.042,4.558,21.375,0c3.164,1.932,5.653,4.539,10.181,5.103
	c8.851-4.052,15.876-9.939,25.448-13.27c-2.054-7.505,3.303-7.577,5.09-11.229c0-5.443,0-10.888,0-16.333
	c-7.939-3.607-13.133-9.968-22.396-12.249c2.249-6.252,0.434-16.58,1.019-24.499C297.239,9.449,290.823,4.146,284.007,2.386z
	 M325.743,2.386c-6.882,3.307-13.388,6.991-19.341,11.229c8.19,2.674,13.631,8.107,21.377,11.229c-1.394,6.103-1.91,18.48,0,24.498
	c5.814-5.057,13.448-8.29,19.34-13.27c-2.362-5.457-0.348-15.302-1.018-22.457C339.082,10.105,333.82,4.833,325.743,2.386z
	 M326.762,69.757c-0.74,3.123,1.756,3.003,1.018,6.125c-1.867,1.64-3.447-0.942-5.09,2.042c1.938,0.438,2.557,2.2,5.09,2.042
	c0.416-1.283,1.313-2.086,3.053-2.042c0-2.381,0-4.763,0-7.145C328.907,71.006,328.587,69.627,326.762,69.757z M321.671,75.881
	c3.356-0.037,3.892-2.903,4.072-6.125C322.484,69.893,321.264,72.071,321.671,75.881z M305.384,14.635
	c-4.905,23.293,9.01,27.714,20.359,34.706c-0.439-8.065,1.024-18.039-1.018-24.498C317.821,21.898,312.988,16.877,305.384,14.635z
	 M243.29,53.424c0,3.063,0,6.125,0,9.188c3.643,1.791,7.792,3.072,10.179,6.124c1.069,4.859-1.362,11.504-1.019,12.25
	c2.182-4.355,5.141,4.862,10.181,4.083c0-7.485,0-14.972,0-22.457C256.61,60.355,247.545,50.69,243.29,53.424z M243.29,63.632
	c0,3.743,0,7.485,0,11.228c4.28,0.13,4.879,3.954,9.16,4.083c0-3.402,0-6.805,0-10.208C249.176,67.256,246.745,64.93,243.29,63.632z
	 M240.235,63.632c-2.402,2.014-5.297,3.536-8.143,5.104c0,3.743,0,7.485,0,11.229c5.464,4.383,13.81,7.183,18.321,0
	C243.548,78.004,240.416,72.297,240.235,63.632z M274.846,94.256c0.631,2.771-1.292,8.1,1.019,9.187
	c1.668-2.409,5.243-2.908,7.124-5.104C279.789,97.465,278.693,94.479,274.846,94.256z M253.469,104.464
	c5.611,5.872,13.646,5.447,19.341,0C277.175,83.104,249.015,82.949,253.469,104.464z M244.308,85.068
	c-0.306,5.109,9.503,4.237,7.125,8.166c3.311-2.465,7.061-4.488,10.181-7.145C256.477,82.099,250.295,81.063,244.308,85.068z
	 M233.109,93.234c5.732,3.894,13.102,5.467,17.305-1.021C245.883,86.752,237.004,87.968,233.109,93.234z M232.093,94.256
	c0.63,2.771-1.292,8.1,1.017,9.187c1.847-2.573,6.299-2.531,8.145-5.104C237.456,97.723,236.261,94.499,232.093,94.256z
	 M252.45,103.442c0-3.063,0-6.125,0-9.187c-7.235,1.929-11.539,6.802-18.323,9.187c2.84,8.024,12.728,6.21,17.306,1.021
	c-1.852-1.597-9.127-3.029-7.125-5.104C247.474,100.269,249.05,102.77,252.45,103.442z M280.952,126.92
	c2.955,2.407,4.892,1.664,7.127-1.021C285.558,123.927,282.024,123.068,280.952,126.92z M280.952,124.879
	c2.094-3.695,5.31-0.949,8.145,0C290.871,114.942,276.448,117.58,280.952,124.879z M264.665,160.605
	c7.636,2.553,12.593,7.788,20.359,10.207c6.19-3.66,12.562-7.139,18.323-11.228C292.151,147.995,274.794,147.961,264.665,160.605z
	 M242.271,160.605c0,1.701,0,3.402,0,5.104c3.591,0.543,4.552,2.994,8.143,1.021C249.481,162.902,245.075,162.558,242.271,160.605z
	 M232.093,165.709c0.645,3.437-1.313,9.481,1.017,11.229c2.979-1.097,3.577-4.58,3.054-9.187c2.813-0.583,5.709-1.081,5.091-5.104
	C238.553,160.008,235.545,165.719,232.093,165.709z M238.199,173.876c0.739-1.721,5.396-4.689,2.036-7.146
	C239.12,168.074,234.757,171.335,238.199,173.876z"/>
</symbol>
<symbol id="cube_rt" viewBox="0 0 320 150">
<title>cube bg right top</title>
<path d="M59.804,0c2.7,0,5.4,0,8.1,0c-7.129,5.561-0.783,16.652-4.05,25.732
	c4.259-0.13,4.853-3.987,9.112-4.116c-1.821,2.607-4.969,3.868-8.099,5.145c0,3.432,0,6.862,0,10.294
	c2.03,1.661,5.859-3.607,9.112-4.118c1.761-10.368-2.254-14.862-9.112-16.468c2.686-2.661,5.678,3.096,9.112,3.088
	C82.466,18.236,85.754,11.63,84.102,0c0.337,0,0.675,0,1.013,0c0,5.146,0,10.293,0,15.439c-4.186,0.892-5.94,4.254-10.125,5.147
	c0,4.459,0,8.92,0,13.38c-4.426,2.019-9.137,3.748-11.137,8.234c1.359,0.677,1.886,2.201,2.025,4.117
	c14.897-1.447,26.622-14.702,40.498-20.585c6.676,4.535,12.608,9.827,21.261,12.352c5.969-3.882,12.511-7.182,18.224-11.323
	c-6.826-4.04-13.464-8.27-21.261-11.322c1.639-3.823,0.84-10.124,1.012-15.439c0.337,0,0.674,0,1.012,0
	c-1.226,4.529,2.248,16.581-1.012,13.381c6.227,4.991,14.499,7.902,21.261,12.351C146.169,16.84,148.97,4.387,143.835,0
	c2.701,0,5.4,0,8.1,0c-6.265,2.562-4.385,18.856-3.037,25.732c5.423-5.465,15.148-6.557,19.235-13.38
	c-1.918-2.02-1.343-10.235,0-12.352c0.338,0,0.676,0,1.013,0c-0.826,4.649,1.951,12.963-2.024,14.41
	c3.264-2.871,15.934-5.063,16.198-14.41c0.339,0,0.676,0,1.013,0c0.084,1.629-0.486,3.926,1.013,4.117
	c1.798-3.489,6.504-1.309,9.112,0c0-1.372,0-2.745,0-4.117c0.337,0,0.674,0,1.013,0c-0.263,9.53,9.106,9.268,14.174,13.381
	c0-4.461,0-8.921,0-13.381c0.337,0,0.674,0,1.013,0c0.649,4.143-1.316,10.944,1.013,13.381c4.3-2.833,9.876-4.369,8.1-13.381
	c0.674,0,1.35,0,2.023,0c0.604,2.132-1.251,6.762,1.013,7.205c2.006-1.393,3.938-2.858,3.038-7.205c0.337,0,0.674,0,1.013,0
	c0.084,1.629-0.488,3.926,1.012,4.117c2.082-3.725,5.278-0.957,8.1,0c0.429-2.151-0.694-2.726-1.013-4.117c0.675,0,1.351,0,2.024,0
	c-0.397,4.178,0.371,7.172,4.051,7.205c0-2.402,0-4.803,0-7.205c0.337,0,0.675,0,1.013,0c-1.682,9.258,3.926,11.104,9.111,13.381
	c0-4.461,0-8.921,0-13.381c0.338,0,0.675,0,1.012,0c0,4.46,0,8.92,0,13.381c6.521-3.321,12.029-7.672,18.225-11.323
	c-0.901-0.456-1.811-0.903-2.025-2.058c2.7,0,5.4,0,8.1,0c0.187,0.875-0.395,0.971-1.012,1.029
	c2.003,4.633,12.007,9.64,19.235,12.352c4.583-4.949,12.461-6.546,17.212-11.323c-0.901-0.456-1.811-0.903-2.025-2.058
	c2.701,0,5.4,0,8.1,0c-0.357,1.352-1.781,1.619-2.024,3.088c1.498,0.536,2.552,1.523,4.05,2.059c0,0.343,0,0.686,0,1.029
	c-3.117,0.767-1.946-2.825-5.062-2.058c2.565,13.516-5.617,37.96,5.062,43.229c0,2.745,0,5.49,0,8.234
	c-4.075-0.711-2.486,4.334-6.074,4.117c-2.729-2.715-6.487-4.384-5.063-11.322c-5.991-1.115-8.827-5.437-14.175-7.205
	c0,7.548,0,15.096,0,22.644c-7.182,4.021-14.269,8.139-21.261,12.351c0,8.235,0,16.469,0,24.704
	c-14.198,8.552-29.366,16.118-42.522,25.73c-6.126-4.751-13.681-8.049-20.248-12.351c0.437,8.133-1.019,18.189,1.013,24.702
	c-10.123,1.375-13.834,9.267-23.286,11.323c-7.289-3.913-14.138-8.273-21.262-12.352c1.406-5.567,2.472-19.653-1.013-23.674
	c-1.778,2.31-4.184,3.981-7.087,5.146c0,4.116,0,8.234,0,12.352c-4.54,1.56-7.271,4.958-12.148,6.176
	c-2.864-2.923-8.316-3.211-10.125-7.205c0-3.431,0-6.862,0-10.293c-3.093-3.374-8.391-4.507-11.136-8.234
	c-0.655,4.823-6.776,4.091-9.112,7.205c0,4.116,0,8.234,0,12.352c-4.084,2.024-8.41,3.802-11.137,7.204
	c-3.161-3.306-8.172-4.729-11.137-8.233c0-3.773,0-7.548,0-11.322c-10.296-6.688-21.911-12.033-31.386-19.556
	c0-13.725,0-27.449,0-41.173c-3.617-2.154-5.886-5.68-6.074-11.321c2.348-0.808,4.547,0.35,6.074-3.088
	c-1.222-5.684,0.479-9.176,0-16.468c-1.237-3.545-6.861-2.63-8.099-6.174c3.522-0.933,7.595,6.554,8.099,2.058
	c0-2.401,0-4.803,0-7.205c-3.532,1.555-7.259,2.912-9.111,6.175c2.308,1.426,0.376,7.165,1.012,10.293
	c0.816,2.316,8.502,2.941,6.075,5.147c-2.921-1.492-6.008-2.813-8.1-5.147c0-4.118,0-8.234,0-12.351
	c-9.778-9.277-25.231,2.994-30.373,7.204c-6.226-5.678-16.424-7.318-22.274-13.38c0-4.803,0-9.606,0-14.41c0.338,0,0.675,0,1.013,0
	c0,4.803,0,9.606,0,14.41c12.474,11.192,30.227,11.794,41.51-1.028c0-4.461,0-8.921,0-13.381c0.337,0,0.675,0,1.012,0
	c-1.227,4.529,2.248,16.581-1.012,13.381c2.505,2.94,7.113,3.746,10.125,6.175c4.715-0.354,6.682-3.5,10.124-5.147
	C62.514,8.91,64.342,1.218,59.804,0z M105.363,27.79c-7.119,3.399-12.789,8.271-20.249,11.322
	c-1.164,8.773,2.084,22.74-1.013,26.762c-1.327-5,1.794-19.278-1.012-25.732c-3.254,5.728-12.487,4.33-13.162,10.293
	c-0.85,7.505,10.297,7.23,12.149,12.351c-5.252-2.208-7.98-6.982-16.199-6.175c-2.32,12.738-0.369,29.816-1.012,44.26
	c7.055,2.776,12.037,7.661,19.236,10.292c0-7.892,0-15.782,0-23.674c8.266-6.349,23.489-5.626,20.249-23.673
	c-2.99-2.793-8.311-3.215-11.136-6.176c3.593-3.634-2.205-13.324,2.024-14.411c-1.065,2.833,1.981,11.877-1.012,15.439
	c4.385-2.478,5.439,2.945,10.125,3.088c-0.126-4.245,1.76-6.445,1.013-11.321c3.73-1.012,5.836-3.673,9.112-5.147
	c-3.611-1.132-5.143-4.378-9.112-5.146c-3.253,0.51-7.082,5.777-9.112,4.116c3.025-2.415,6.789-4.077,10.125-6.174
	c2.594,2.851,6.008,4.871,10.125,6.174c3.148-0.916,4.717-3.438,8.1-4.116c-1.937,2.492-4.486,4.36-8.1,5.146
	c0,4.46,0,8.921,0,13.38c-3.953,1.129-6.665,3.519-10.125,5.147c0,3.431,0,6.862,0,10.293c7.234-1.909,11.015-7.33,18.225-9.264
	c2.03-6.512,0.575-16.569,1.012-24.703C119.422,35.455,112.453,31.562,105.363,27.79z M58.791,54.552
	c2.762-0.749,2.038,2.045,4.049,2.059c-0.91-2.849,2.081-9.663-2.024-9.264C59.037,50.922,59.932,51.254,58.791,54.552z
	 M67.903,50.435c-1.235,0.117-2.397,0.308-2.025,2.059c1.394-0.045,2.223,0.485,3.038,1.029c1.176-4.011-2.794-8.047-5.063-5.147
	c1.224,0.217,0.623,1.142,0,2.059C65.739,51.419,67.237,47.353,67.903,50.435z M85.115,88.518c0,8.234,0,16.469,0,24.703
	c4.93,0.477,6.364,4.509,11.136,5.147c2.711-2.391,5.021-5.189,9.112-6.177c4.079,1.686,7.058,4.489,11.137,6.177
	c2.201-2.565,6.496-3.004,8.1-6.177c-6.068-4.468-14.543-6.488-19.237-12.351c0.077-8.314-0.313-16.151-2.025-22.646
	C98.541,82.269,91.102,84.654,85.115,88.518z M104.351,113.221c-1.803,2.971-6.867,2.625-7.087,7.205
	c5.853,4.012,13.097,3.112,17.211-2.058C110.768,116.988,108.214,114.44,104.351,113.221z M105.363,126.601
	c-3.198-1.552-4.331-5.203-9.112-5.146c0,3.431,0,6.861,0,10.293c5.91,5.437,13.851,3.879,19.237-1.029
	C118.423,116.832,109.338,121.37,105.363,126.601z M126.624,64.845c-4.676,1.533-12.169,7.883-19.236,10.292
	c-2.054,6.834-0.56,17.272-1.013,25.733c7.167,2.664,12.453,7.239,19.237,10.292c-0.305-7.874,0.062-20.503,1.012-23.674
	c-3.966,1.899-13.294-7.452-19.236-10.293c15.298,14.52,46.432,9.534,39.485-23.672c-6.896,2.939-13.339,6.337-19.237,10.292
	c5.792,4.061,13.063,6.62,18.224,11.321C138.897,72.267,132.984,68.329,126.624,64.845z M128.649,87.488
	c-2.154,6.387-2.247,14.871-2.025,23.674c7.552-2.616,12.628-7.747,20.25-10.292c-0.667-7.558,1.338-17.83-1.013-23.675
	C140.905,81.422,134.714,84.392,128.649,87.488z M169.146,41.171c0,7.89,0,15.782,0,23.673c-7.639,3.213-14.909,6.8-20.248,12.351
	c-2.353,6.187-0.346,16.805-1.013,24.704c-7.204,3.312-14.42,6.61-20.249,11.321c4.284,1.135,5.795,5.087,11.137,5.147
	c2.091-3.021,5.712-4.486,9.112-6.177c3.804,1.622,5.673,5.211,10.124,6.177c11.126-2.07,9.976-16.622,10.124-29.851
	c-6.787-3.392-13.214-7.15-19.235-11.322c7.865,2.64,13.909,7.132,20.248,11.322c0,7.549,0,15.097,0,22.645
	c6.851-2.642,11.421-7.603,18.225-10.292c2.201-10.457,0.455-24.927,1.013-37.055c-3.624-1.806-7.752-3.099-10.125-6.176
	c0-3.431,0-6.862,0-10.293C175.909,44.588,173.392,42.001,169.146,41.171z M137.761,120.426c0,3.773,0,7.549,0,11.322
	c4.363,0.711,6.218,3.971,10.125,5.146c2.685-2.074,5.678-3.835,9.112-5.146c0-3.432,0-6.862,0-10.293
	c-4.453,0.62-6.464,3.721-10.125,5.146c-0.514-3.295-9.309-3.513-7.087-6.175c3.148,0.916,4.717,3.438,8.1,4.116
	c2.788-1.968,7.171-2.316,8.1-6.174C148.616,112.362,143.894,114.039,137.761,120.426z M169.146,112.191
	c0.59,8.321-1.231,19.094,1.013,25.732c6.441,3.743,12.67,7.703,19.236,11.322c6.271-4.947,14.854-7.544,20.249-13.382
	c-1.031-7.186-1.22-15.229-1.013-23.673C193.165,100.54,183.519,101.386,169.146,112.191z M209.645,64.845
	c0-7.892,0-15.783,0-23.673c-4.409,1.592-4.859,1.683-9.112,4.117c0,4.118,0,8.235,0,12.352c-3.397,2.378-6.692,4.862-11.137,6.176
	c0,12.008,0,24.016,0,36.025c12.435,3.077,28.568,23.871,41.51,23.672c6.24-0.095,14.528-7.96,20.249-11.321
	c7.275-4.274,13.53-7.636,20.249-11.321c0.582-7.986-1.224-18.398,1.012-24.704c-7.918-2.927-13.062-8.68-21.261-11.321
	c-6.909,3.613-12.634,8.428-20.249,11.321C223.291,72.929,217.306,68.034,209.645,64.845z M292.664,63.815
	c0-7.548,0-15.096,0-22.644c-13.525,3.747-23.138,11.471-19.236,32.937C280.739,71.592,285.452,66.433,292.664,63.815z
	 M252.166,41.171c0,7.548,0,15.096,0,22.644c7.447,2.046,14.604,9.843,20.249,10.293c-1.79-4.594-1.536-15.951,0-20.585
	C266.702,48.352,260.226,43.957,252.166,41.171z M294.688,14.41c0,7.892,0,15.783,0,23.674c5.966,5.222,11.425,11.175,19.237,7.204
	c0-13.723,0-27.447,0-41.171C306.159,6.171,300.762,10.634,294.688,14.41z M271.403,27.79c-5.126,5.083-13.448,6.914-18.225,12.352
	c11.883,10.015,27.85,10.831,38.474-1.03C284.743,35.5,279.018,30.685,271.403,27.79z M252.166,38.084
	c7.707-3.145,12.789-8.957,21.262-11.323c6.825,3.012,11.151,8.563,19.236,10.294c0-7.549,0-15.097,0-22.645
	C277.558-1.63,245.001,3.718,252.166,38.084z M314.938,46.317c-1.041,5.728,1.576,2.062,3.036,4.118
	c-1.444,0.246-1.707,1.695-3.036,2.059c-1.346-1.034-3.768-0.974-4.051-3.088c1.395-0.044,2.223,0.484,3.038,1.029
	c0.605-2.675-0.406-3.704-3.038-3.088c-3.971,7.308,3.75,12.116,7.087,7.205c-3.383-0.904-1.063-3.262,1.013-1.029
	C319.68,49.044,317.167,47.825,314.938,46.317z M168.134,37.055c-1.79-4.594-1.536-15.952,0-20.586
	c-6.883,3.295-14.264,6.083-19.235,11.321C156.156,29.342,161.936,37.851,168.134,37.055z M147.886,28.819
	c0.186,17.182,0.252,28.217,0,45.289c8.299-1.856,12.167-8.216,20.248-10.293c0-7.892,0-15.783,0-23.673
	C161.305,36.45,155.621,31.592,147.886,28.819z M127.637,41.171c0.7,7.917-1.712,12.669-1.013,20.585
	c7.207-2.623,13.536-6.138,19.237-10.292C139.914,47.903,134.484,43.816,127.637,41.171z M146.874,48.376c0-6.518,0-13.037,0-19.557
	c-6.667,3.173-13.516,6.161-18.225,11.323C135.012,41.365,142.957,51.475,146.874,48.376z M185.346,6.175
	c3.295,0.355,5.735,0.582,4.05,4.118c-2.744-0.641-2.52-4.3-6.075-4.118c-4.029,3.451-10.174,4.753-13.161,9.264
	c10.835,10.921,28.41,10.284,38.473-1.029c-6.324-0.674-11.415-11.603-17.212-6.175c-2.631-2.707,1.637-0.811,1.013-4.117
	C188.648,3.466,186.635,2.496,185.346,6.175z M210.657,16.469c-1.086,7.13,2.331,18.839-2.025,22.644
	c2.214-5.64,0.446-15.33,1.013-22.644c-7.518,3.336-14.407,7.31-21.261,11.321c-5.528-4.674-12.805-7.568-19.237-11.321
	c0,7.547,0,15.095,0,22.644c7.638,6.757,12.753,4.849,20.249-1.028c2.558,2.545,6.555,3.629,9.111,6.174
	c11.951-4.318,21.133-11.452,31.386-17.498C223.098,23.721,217.408,19.555,210.657,16.469z M211.67,15.439
	c7.211,3.305,13.235,7.816,20.248,11.322c5.143-5.065,13.081-7.287,18.224-12.351c-3.667-1.075-4.693-4.834-10.124-4.117
	c-3.258,1.492-5.674,3.838-9.112,5.146C226.081,10.287,215.808,8.395,211.67,15.439z M222.806,9.264
	c3.257,1.492,5.674,3.838,9.112,5.146c1.238-3.544,6.861-2.631,8.1-6.175c-3.21-4.487-12.444,4.557-12.149-2.059
	c2.938,2.427,4.864,1.679,7.087-1.029C231.115,1.521,225.411,5.76,222.806,9.264z M210.657,41.171c0,7.548,0,15.096,0,22.644
	c7.667,3.184,13.1,8.639,21.261,11.321c6.362-3.824,11.998-8.387,19.236-11.321c0-7.548,0-15.096,0-22.644
	c-5.414,1.702-9.019,5.24-14.175,7.205c1.353,7.55-3.232,9.066-7.087,11.322c-1.189-5.718-6.953-1.621-5.062-11.322
	C220.033,46.049,215.928,43.018,210.657,41.171z M231.918,28.819c-5.449,0.991-15.194,6.502-20.248,11.323
	c5.198,1.919,8.975,5.285,14.174,7.205c2.067-0.985,4.007-2.103,6.074-3.088c0.7,2.033,2.7,2.745,5.062,3.088
	c4.011-3.127,9.961-4.285,13.162-8.234C244.204,35.542,238.474,31.761,231.918,28.819z M249.13,16.469
	c-4.515,4.674-11.866,6.464-16.199,11.321c6.43,3.07,12.095,6.917,18.224,10.294C249.922,31.445,253.694,19.72,249.13,16.469z
	 M179.271,57.64c3.438,1.308,5.854,3.654,9.112,5.146c-0.51-6.703-7.926-11.82-7.088-16.468c3.084,1.902,4.366-0.315,8.1-2.059
	c1.687,1.733,5.499,4.4,8.099,2.059C192.461,35.324,174.886,41.561,179.271,57.64z M198.507,46.317
	c-2.96,1.107-3.556,4.618-3.036,9.264c-3.777-0.357-8.61,3.529-5.063,7.205c2.687-2.073,5.679-3.834,9.112-5.146
	C198.879,54.175,200.824,48.079,198.507,46.317z M225.844,49.406c0,1.715,0,3.431,0,5.146c4.765,2.886,12.708,1.448,9.111-5.146
	c-2.137,0.915-1.759,4.388-5.063,4.117C229.77,50.903,228.419,49.531,225.844,49.406z M227.868,49.406
	c3.502-0.836,4.274,1.922,6.075,0c0.043-1.417-0.477-2.26-1.013-3.088C230.348,46.437,227.722,46.511,227.868,49.406z
	 M115.488,47.347c-3.755,0.644-5.928,2.893-9.112,4.118c0.641,3.464-1.304,9.56,1.013,11.321
	C111.402,58.976,118.065,57.858,115.488,47.347z M193.445,49.406c-1.749,1.035-6.655,4.121-3.038,7.205
	C192.157,55.576,197.063,52.49,193.445,49.406z M188.384,56.61c1.284-4.737-1.843-4.99-3.038-7.205c2.868,1.073,4.22,1.073,7.087,0
	C188.834,39.623,178.675,55.548,188.384,56.61z"/>
</symbol>
<symbol id="cube_ele" viewBox="0 0 60 60">
<title>cube element</title>
<path d="M5.316,16.425c0,8.674,0,17.349,0,26.022c7.344,5.813,15.933,10.403,24.132,15.376
	c5.81-1.007,8.669-4.905,14.479-5.913c-3.533,3.632-9.868,4.521-13.271,8.279c-9.027-4.95-16.418-11.504-26.546-15.376
	c0-9.857,0-19.714,0-29.571c9.179-4.407,19.275-7.914,25.338-15.376c8.07,5.889,17.345,10.597,26.546,15.376
	c0,9.857,0,19.714,0,29.571c-4.362,1.638-6.76,5.201-12.067,5.915c2.251-3.316,6.608-4.563,10.861-5.915c0-9.068,0-18.138,0-27.206
	c-5.641-7.087-17.336-8.241-22.926-15.377C29.262,3.157,15.455,12.415,5.316,16.425z"/>
</symbol>
</svg>