<?xml version="1.0" encoding="utf-8"?>
<svg xmlns="http://www.w3.org/2000/svg">
<symbol id="logo" viewBox="0 0 256 256">
<title>logo</title>
	<path d="M231.234,27.786c-40.505,18.979-73.417,43.514-100.926,72.496
	c-26.587,28.01-59.495,54.703-106.611,62.546c-13.87-12.225-16.826-70.65,4.265-76.762c17.539-5.081,32.26,13.785,44.066,21.323
	c6.737-3.215,12.385-7.516,17.058-12.793c-16.477-9.252-33.075-25.487-56.86-22.744C20.099,89.087,2.012,115.182,6.64,145.769
	c2.497,16.499,17.676,40.145,28.429,44.066c19.212,7.005,45.889-11.641,59.702-21.322c39.956-28.007,77.919-77.694,129.355-83.867
	c11.84,28.758,21.545,81.955,4.265,108.032c-22.513-6.865-38.682-20.073-56.86-31.273c-6.94,3.01-14.147,5.753-18.479,11.373
	c27.588,19.796,50.33,44.436,86.711,55.437C258.178,169.406,249.919,81.606,231.234,27.786z"/>
</symbol>	
<symbol id="bayun" viewBox="0 0 768 256">
<title>bayun logo</title>
	<rect width="176" height="24"/>
	<polygon points="512,200 512,256 0,256 0,232 488,232 488,200 "/>
	<polygon points="256,80 256,176 0,176 0,80 176,80 176,104 24,104 24,152 232,152 232,80 "/>
	<polygon points="768,232 768,256 592,256 592,176 488,176 488,152 616,152 616,232 "/>
	<rect x="232" fill="rgb(145, 12, 12)" width="24" height="24"/>
</symbol>
<symbol id="bayun_bold" viewBox="0 0 768 256">
<title>bayun logo bold</title>
	<rect width="176" height="32"/>
	<polygon points="512,216 512,256 0,256 0,224 480,224 480,216 "/>
	<polygon points="256,72 256,184 0,184 0,72 176,72 176,104 32,104 32,152 224,152 224,72 "/>
	<rect x="224" fill="rgb(145, 12, 12)" width="32" height="32"/>
	<polygon points="768,224 768,256 584,256 584,184 480,184 480,152 616,152 616,224 "/>
</symbol>
<symbol id="eight" viewBox="0 0 768 256">
<title>eight logo</title>
	<rect width="176" height="24"/>
	<polygon points="768,232 768,256 592,256 592,176 512,176 512,256 0,256 0,232 488,232 488,104 312,104 312,0 512,0 
		512,24 336,24 336,80 512,80 512,152 592,152 592,0 616,0 616,152 688,152 688,176 616,176 616,232 "/>
	<polygon points="256,80 256,176 0,176 0,80 176,80 176,104 24,104 24,152 232,152 232,80 "/>
	<rect x="232" fill="rgb(145, 12, 12)" width="24" height="24"/>
</symbol>
<symbol id="eight_bold" viewBox="0 0 768 256">
<title>eight logo bold</title>
	<rect width="176" height="32"/>
	<polygon points="256,72 256,184 0,184 0,72 176,72 176,104 32,104 32,152 224,152 224,72 "/>
	<polygon points="768,224 768,256 584,256 584,184 512,184 512,256 0,256 0,224 480,224 480,104 304,104 304,0 512,0 
		512,32 336,32 336,72 512,72 512,152 584,152 584,0 616,0 616,152 688,152 688,184 616,184 616,224 "/>
	<rect x="224" fill="rgb(145, 12, 12)" width="32" height="32"/>
</symbol>
<symbol id="eight_light" viewBox="0 0 768 256">
<title>eight logo light</title>
	<rect width="176" height="16"/>
	<polygon points="768,240 768,256 592,256 592,176 512,176 512,256 0,256 0,240 496,240 496,96 320,96 320,0 512,0 
		512,16 336,16 336,80 512,80 512,160 592,160 592,0 608,0 608,160 688,160 688,176 608,176 608,240 	"/>
	<polygon points="256,80 256,176 0,176 0,80 176,80 176,96 16,96 16,160 240,160 240,80 	"/>
	<rect x="240" fill="rgb(145, 12, 12)" width="16" height="16"/>
</symbol>
</svg>