<?xml version="1.0" encoding="utf-8"?>
<!-- Generator: Adobe Illustrator 15.1.0, SVG Export Plug-In . SVG Version: 6.00 Build 0)  -->
<svg version="1.2" baseProfile="tiny" id="Layer_1" xmlns="http://www.w3.org/2000/svg" xmlns:xlink="http://www.w3.org/1999/xlink"
	 x="0px" y="0px" width="32px" height="32px" viewBox="0 0 32 32" xml:space="preserve">
<path d="M16 1.333q2.99 0 5.703 1.161t4.677 3.125 3.125 4.677 1.161 5.703-1.161 5.703-3.125 4.677-4.677
 3.125-5.703 1.161-5.703-1.161-4.677-3.125-3.125-4.677-1.161-5.703 1.161-5.703 3.125-4.677 
 4.677-3.125 5.703-1.161zm0 2.667q-2.438 0-4.661.953t-3.828 2.557-2.557 3.828-.953 
 4.661.953 4.661 2.557 3.828 3.828 2.557 4.661.953 4.661-.953 
 3.828-2.557 2.557-3.828.953-4.661-.953-4.661-2.557-3.828-3.828-2.557-4.661-.953zm3.771 6.885q.552 
 0 .948.391t.396.943-.396.948l-2.833 2.833 2.833 2.823q.396.396.396.938 0 
 .552-.396.943t-.948.391-.938-.385l-2.833-2.823-2.823 2.823q-.385.385-.948.385-.552 
 0-.943-.385t-.391-.938q0-.563.385-.948l2.833-2.823-2.833-2.833q-.385-.385-.385-.938t.391-.948.943-.396.948.396l2.823 2.833 2.833-2.833q.396-.396.938-.396z"/>
</svg>
